#!OML:ASF H:\ManfredETheater\Project 1\Capture day 1\Session 1\subject.ASF
:FULLY-SPECIFIED
:DEGREES
385
root -6.68049 11.5477 9.14998 39.3095 63.3045 26.573
lowerback 41.5275 -4.70199 -1.97408
upperback 6.71295 -5.9118 -0.518265
thorax -12.2182 -2.22444 3.01078
lowerneck 1.19706 -17.8146 -13.6383
upperneck -23.5085 -21.4244 27.6568
head -2.16062 -11.7255 10.4871
rclavicle 1.47101e-014 -2.90226e-014
rhumerus -39.7903 -6.13193 -77.5486
rradius 89.4031
rwrist -11.0779
rhand -28.2891 -6.25705
rfingers 7.12502
rthumb -1.66514 -36.2303
lclavicle 1.47101e-014 -2.90226e-014
lhumerus -33.5646 23.2139 75.0246
lradius 92.0356
lwrist 1.43781
lhand -27.7086 -11.4295
lfingers 7.12502
lthumb -1.10446 18.5473
rfemur -88.9223 -34.8161 19.0299
rtibia 120.804
rfoot -31.2606 -10.51
rtoes -38.0858
lfemur -39.8795 19.6032 13.9362
ltibia 79.4247
lfoot -19.6625 -7.42058
ltoes -42.8402
386
root -6.60903 11.6778 9.27384 39.3454 62.2125 26.4892
lowerback 40.4721 -4.55992 -2.20991
upperback 6.41254 -5.93459 -0.71917
thorax -12.2224 -2.25597 2.9011
lowerneck 0.883835 -17.7712 -13.6885
upperneck -23.3721 -21.3411 27.5829
head -2.09091 -11.6479 10.4366
rclavicle -5.60573e-014 2.66371e-014
rhumerus -40.2276 -6.35644 -78.1787
rradius 88.8757
rwrist -10.2539
rhand -28.4095 -5.86459
rfingers 7.12502
rthumb -1.78144 -35.8369
lclavicle -5.60573e-014 2.66371e-014
lhumerus -33.6104 22.7607 75.7445
lradius 90.4967
lwrist 1.52957
lhand -27.4682 -11.7376
lfingers 7.12502
lthumb -0.872284 18.2403
rfemur -88.1015 -34.2286 18.8646
rtibia 120.027
rfoot -31.3184 -10.4781
rtoes -38.2775
lfemur -38.0909 18.3473 13.6372
ltibia 77.5532
lfoot -18.3637 -7.33633
ltoes -43.2337
387
root -6.5393 11.8118 9.40263 39.4186 61.1395 26.4508
lowerback 39.4503 -4.44481 -2.46873
upperback 6.11704 -5.99008 -0.935064
thorax -12.2171 -2.29957 2.80111
lowerneck 0.521871 -17.7192 -13.7146
upperneck -23.1758 -21.249 27.493
head -2.00319 -11.5625 10.3699
rclavicle 1.70955e-014 -7.23576e-014
rhumerus -40.5873 -6.50406 -78.8676
rradius 88.3419
rwrist -9.58583
rhand -28.6111 -5.54121
rfingers 7.12502
rthumb -1.97609 -35.5118
lclavicle 1.70955e-014 -7.23576e-014
lhumerus -33.6455 22.3014 76.3471
lradius 89.0157
lwrist 1.46744
lhand -26.9493 -11.961
lfingers 7.12502
lthumb -0.371113 18.0185
rfemur -87.181 -33.5922 18.6434
rtibia 119.179
rfoot -31.4203 -10.4896
rtoes -38.4014
lfemur -36.4414 17.0134 13.2675
ltibia 75.7403
lfoot -16.7795 -7.22023
ltoes -43.4831
388
root -6.47167 11.9503 9.53609 39.5254 60.0979 26.4539
lowerback 38.4667 -4.34384 -2.72287
upperback 5.82008 -6.05008 -1.14893
thorax -12.2148 -2.34343 2.70328
lowerneck 0.156271 -17.675 -13.7653
upperneck -22.9432 -21.1761 27.397
head -1.89888 -11.4835 10.2989
rclavicle -9.54166e-015 1.86858e-014
rhumerus -40.8989 -6.58839 -79.5557
rradius 87.8112
rwrist -9.13671
rhand -28.8866 -5.31588
rfingers 7.12502
rthumb -2.24217 -35.2838
lclavicle -9.54166e-015 1.86858e-014
lhumerus -33.6661 21.8002 76.9017
lradius 87.6032
lwrist 1.18483
lhand -26.2719 -12.1275
lfingers 7.12502
lthumb 0.28314 17.8521
rfemur -86.1601 -32.9022 18.3799
rtibia 118.251
rfoot -31.5522 -10.5907
rtoes -38.5056
lfemur -34.9789 15.6127 12.8227
ltibia 74.0338
lfoot -14.8721 -7.01697
ltoes -43.5847
389
root -6.40626 12.0935 9.67317 39.6658 59.1143 26.4949
lowerback 37.5338 -4.28256 -2.94356
upperback 5.5174 -6.13761 -1.36626
thorax -12.2288 -2.39825 2.5972
lowerneck -0.220423 -17.6298 -13.8264
upperneck -22.6602 -21.1095 27.2938
head -1.77713 -11.4048 10.2218
rclavicle 8.50798e-014 1.41137e-014
rhumerus -41.1647 -6.57361 -80.2611
rradius 87.279
rwrist -8.91325
rhand -29.2166 -5.18978
rfingers 7.12502
rthumb -2.5609 -35.1542
lclavicle 8.50798e-014 1.41137e-014
lhumerus -33.6933 21.2755 77.3803
lradius 86.2696
lwrist 0.64752
lhand -25.5374 -12.3131
lfingers 7.12502
lthumb 0.992538 17.6643
rfemur -85.0432 -32.1767 18.0935
rtibia 117.235
rfoot -31.7115 -10.7781
rtoes -38.5645
lfemur -33.7564 14.1517 12.3069
ltibia 72.482
lfoot -12.6189 -6.68769
ltoes -43.4995
390
root -6.34337 12.2415 9.8133 39.815 58.202 26.5522
lowerback 36.6685 -4.26079 -3.12001
upperback 5.20896 -6.24941 -1.5768
thorax -12.2673 -2.46263 2.48737
lowerneck -0.60164 -17.579 -13.9087
upperneck -22.3307 -21.0428 27.1883
head -1.63931 -11.3233 10.1435
rclavicle 3.53837e-014 -7.95139e-015
rhumerus -41.392 -6.44705 -80.9685
rradius 86.7422
rwrist -8.86692
rhand -29.5593 -5.17553
rfingers 7.12502
rthumb -2.89183 -35.1357
lclavicle 3.53837e-014 -7.95139e-015
lhumerus -33.7279 20.7168 77.799
lradius 85.0259
lwrist -0.107413
lhand -24.8757 -12.5727
lfingers 7.12502
lthumb 1.63157 17.4008
rfemur -83.8255 -31.4108 17.802
rtibia 116.127
rfoot -31.8869 -11.0696
rtoes -38.5786
lfemur -32.8005 12.6604 11.7301
ltibia 71.1282
lfoot -10.0375 -6.19501
ltoes -43.1585
391
root -6.28327 12.3939 9.95598 39.9584 57.3654 26.6046
lowerback 35.875 -4.27687 -3.24892
upperback 4.89352 -6.38474 -1.77809
thorax -12.3358 -2.53641 2.37454
lowerneck -0.984312 -17.5185 -14.0024
upperneck -21.9533 -20.9703 27.0798
head -1.48784 -11.2371 10.0642
rclavicle -2.0276e-014 -8.74653e-015
rhumerus -41.5912 -6.20244 -81.674
rradius 86.2022
rwrist -8.92057
rhand -29.8788 -5.25475
rfingers 7.12502
rthumb -3.20045 -35.2105
lclavicle -2.0276e-014 -8.74653e-015
lhumerus -33.7704 20.1086 78.1724
lradius 83.8919
lwrist -0.958819
lhand -24.412 -12.8935
lfingers 7.12502
lthumb 2.07944 17.0761
rfemur -82.5238 -30.5982 17.5309
rtibia 114.927
rfoot -32.0659 -11.477
rtoes -38.5432
lfemur -32.1387 11.1952 11.094
ltibia 70.0177
lfoot -7.21918 -5.55806
ltoes -42.5274
392
root -6.22623 12.5494 10.1002 40.0785 56.6053 26.6326
lowerback 35.0748 -4.32813 -3.31368
upperback 4.65475 -6.532 -1.98578
thorax -12.4308 -2.61556 2.25381
lowerneck -1.37149 -17.4529 -14.1008
upperneck -21.5338 -20.8967 26.967
head -1.32419 -11.1488 9.98224
rclavicle -7.7526e-014 1.07344e-014
rhumerus -41.7659 -5.85328 -82.3645
rradius 85.6568
rwrist -8.98464
rhand -30.1745 -5.36571
rfingers 7.12502
rthumb -3.48595 -35.317
lclavicle -7.7526e-014 1.07344e-014
lhumerus -33.8081 19.4229 78.5285
lradius 82.8888
lwrist -1.77606
lhand -24.1936 -13.2628
lfingers 7.12502
lthumb 2.29035 16.7046
rfemur -81.1601 -29.7401 17.3028
rtibia 113.642
rfoot -32.2398 -11.9991
rtoes -38.4418
lfemur -31.7679 9.80749 10.412
ltibia 69.1925
lfoot -4.37422 -4.97411
ltoes -41.4362
